<?xml version="1.0" standalone="no"?>
<!DOCTYPE svg PUBLIC "-//W3C//DTD SVG 20010904//EN"
 "http://www.w3.org/TR/2001/REC-SVG-20010904/DTD/svg10.dtd">
<svg version="1.0" xmlns="http://www.w3.org/2000/svg"
 width="1024.000000pt" height="1024.000000pt" viewBox="0 0 1024.000000 1024.000000"
 preserveAspectRatio="xMidYMid meet">
<metadata>
Created by potrace 1.16, written by Peter Selinger 2001-2019
</metadata>
<g transform="translate(0.000000,1024.000000) scale(0.100000,-0.100000)"
fill="#000000" stroke="none">
<path d="M0 5120 l0 -5120 5120 0 5120 0 0 5120 0 5120 -5120 0 -5120 0 0
-5120z m3500 3768 c24 -18 57 -44 74 -57 47 -35 141 -77 241 -107 73 -21 117
-27 233 -31 272 -10 477 46 661 182 l63 46 157 -56 c262 -96 629 -243 713
-287 44 -22 102 -64 131 -92 79 -78 518 -654 702 -921 82 -120 115 -175 115
-194 0 -6 -57 -56 -127 -113 -71 -56 -218 -177 -328 -268 -235 -195 -247 -204
-278 -197 -12 4 -78 67 -145 142 -114 125 -143 148 -156 127 -4 -8 3 -679 20
-1697 7 -412 6 -420 -14 -445 -19 -24 -24 -25 -203 -31 -134 -5 -2061 -23
-2546 -23 -31 0 -49 6 -65 22 l-23 23 -3 1074 c-1 676 -6 1075 -12 1075 -5 0
-62 -63 -126 -140 -69 -84 -123 -140 -134 -140 -16 0 -346 247 -595 445 -115
92 -215 186 -215 203 0 34 705 939 820 1053 79 78 167 123 435 224 99 37 261
100 360 141 99 40 185 73 191 73 6 1 30 -14 54 -31z m3521 -284 c148 -44 300
-162 377 -293 14 -24 37 -73 50 -110 24 -63 25 -79 34 -416 4 -192 11 -360 13
-373 5 -18 11 -23 33 -20 41 5 52 38 52 164 0 88 3 114 15 124 22 18 352 8
370 -11 17 -19 67 -387 240 -1769 115 -928 113 -908 89 -938 -11 -13 -36 -27
-56 -31 -28 -7 -2411 -18 -2466 -12 -7 0 -17 12 -22 26 -5 14 -14 365 -20 807
-5 431 -12 834 -14 897 l-5 114 32 -31 c64 -61 169 -67 262 -13 88 51 692 562
714 605 21 38 4 81 -89 226 -44 69 -80 128 -80 132 0 4 12 11 26 14 39 10 627
-6 639 -17 5 -5 12 -67 15 -137 5 -134 10 -152 39 -152 40 0 46 24 33 139 -7
59 -12 202 -12 317 0 164 -4 222 -16 265 -36 121 -84 182 -203 258 -106 68
-179 77 -294 37 -124 -44 -228 -130 -266 -220 -36 -83 -63 -213 -59 -287 2
-49 0 -69 -9 -67 -6 2 -45 46 -87 98 -86 108 -87 113 -57 232 29 114 64 173
156 265 66 66 98 90 166 122 46 23 109 47 139 55 74 20 194 20 261 0z m-3128
-4079 c146 -38 249 -163 278 -335 12 -77 11 -770 -2 -850 -21 -130 -109 -255
-213 -301 -101 -44 -271 -45 -368 -1 -108 49 -187 167 -209 310 -17 116 -6
842 14 910 42 144 146 245 278 271 70 14 160 12 222 -4z m4409 4 c182 -39 288
-178 288 -378 0 -42 -5 -83 -10 -91 -12 -19 -213 -28 -234 -11 -9 8 -15 41
-17 96 -4 72 -7 87 -28 109 -50 53 -136 58 -184 10 -44 -44 -49 -96 -45 -519
3 -372 4 -392 23 -425 30 -50 89 -70 147 -50 75 27 83 49 83 223 l0 152 -58 5
c-36 3 -62 11 -67 20 -14 22 -12 163 3 183 11 15 34 18 188 19 97 0 182 -3
188 -6 8 -5 11 -88 11 -270 0 -289 -7 -333 -61 -412 -43 -63 -114 -121 -178
-145 -48 -18 -72 -20 -171 -17 -100 3 -122 7 -165 30 -64 33 -139 113 -170
181 -41 89 -47 166 -43 589 4 375 5 396 26 458 39 116 122 203 230 242 55 20
167 23 244 7z m-6095 -20 c141 -53 223 -199 223 -400 0 -94 -7 -99 -128 -99
-53 0 -102 4 -108 8 -6 4 -13 43 -16 87 -5 93 -25 138 -71 161 -41 22 -106 22
-139 0 -56 -36 -58 -58 -58 -507 0 -435 2 -451 49 -493 29 -26 109 -33 149
-12 46 24 63 66 71 170 l6 91 109 3 c71 2 113 -1 122 -9 32 -26 6 -246 -39
-335 -30 -60 -102 -128 -165 -157 -41 -19 -65 -22 -177 -22 -122 0 -133 2
-187 28 -107 53 -174 154 -198 299 -13 80 -13 767 0 868 13 101 65 206 126
257 69 56 158 82 276 83 75 0 110 -5 155 -21z m2842 -3 c8 -9 11 -51 9 -122
l-3 -109 -115 -5 -115 -5 -5 -610 c-3 -335 -9 -616 -13 -622 -11 -18 -228 -18
-245 -1 -9 9 -12 159 -12 613 0 454 -3 604 -12 613 -8 8 -48 12 -115 12 -91 0
-103 2 -113 19 -11 21 -14 214 -3 224 3 4 169 7 368 7 298 0 365 -2 374 -14z
m430 -10 c9 -10 10 -82 5 -273 -4 -177 -3 -267 5 -285 l11 -28 120 0 c176 0
165 -22 156 301 -5 182 -4 264 4 278 10 19 20 21 123 21 75 0 117 -4 125 -12
16 -16 17 -1419 2 -1449 -10 -17 -22 -19 -118 -19 -71 0 -112 4 -120 12 -9 9
-12 91 -12 309 0 241 -3 299 -14 308 -9 8 -56 11 -142 9 l-129 -3 -3 -304 c-1
-204 -6 -309 -13 -318 -8 -9 -43 -13 -130 -13 -66 0 -119 3 -119 8 -4 118 -6
1463 -2 1467 3 3 58 5 122 5 89 0 120 -3 129 -14z m1039 -716 c2 -673 1 -726
-15 -737 -23 -17 -214 -18 -231 -1 -9 9 -12 186 -12 733 0 397 3 725 7 729 4
3 61 5 127 4 l121 -3 3 -725z m500 717 c6 -7 49 -125 95 -262 133 -393 199
-575 208 -575 5 0 10 190 11 423 l3 422 120 0 120 0 3 -724 c1 -526 -1 -728
-9 -737 -9 -11 -44 -14 -140 -14 -116 0 -129 2 -139 19 -5 11 -39 111 -74 224
-81 256 -203 608 -216 621 -7 7 -10 -139 -10 -411 0 -232 -3 -428 -6 -437 -5
-13 -25 -16 -115 -16 -94 0 -110 2 -118 18 -6 11 -8 285 -5 727 2 391 4 716 4
723 0 17 253 17 268 -1z m-4170 -9 c9 -9 12 -157 12 -604 0 -525 2 -594 16
-608 13 -13 44 -16 183 -16 145 0 171 -2 182 -17 19 -22 26 -198 9 -218 -10
-13 -62 -15 -319 -15 -225 0 -310 3 -319 12 -9 9 -12 187 -12 738 0 400 3 730
7 733 12 13 228 8 241 -5z m-70 -1847 c76 -39 120 -121 129 -238 6 -72 6 -72
-22 -83 -16 -6 -54 -10 -84 -8 l-56 3 -6 62 c-7 74 -28 109 -69 118 -44 10
-86 -11 -105 -51 -14 -29 -15 -74 -13 -323 l3 -289 24 -26 c20 -21 34 -26 71
-26 63 0 82 22 87 98 7 108 3 103 91 100 l77 -3 -1 -85 c0 -104 -27 -174 -85
-224 -49 -41 -97 -56 -186 -56 -138 0 -228 77 -253 217 -8 46 -11 162 -8 353
3 273 4 287 26 336 49 107 140 158 268 150 45 -3 87 -12 112 -25z m640 18
c103 -22 171 -118 180 -255 4 -66 3 -73 -17 -83 -12 -7 -49 -11 -84 -9 l-62 3
-7 60 c-10 84 -21 102 -66 116 -32 9 -44 8 -71 -5 -17 -9 -36 -28 -41 -42 -6
-14 -10 -151 -10 -305 0 -297 5 -335 48 -358 31 -16 77 -13 102 7 23 18 39 77
40 143 0 42 13 49 96 49 70 0 78 -12 71 -103 -7 -88 -20 -134 -50 -178 -47
-71 -130 -104 -237 -97 -108 8 -182 56 -224 148 -20 43 -21 61 -21 385 0 326
1 342 21 385 28 59 86 116 138 134 50 17 128 20 194 5z m2696 -19 c59 -30 110
-95 126 -160 6 -26 12 -172 13 -345 2 -336 -2 -367 -60 -435 -59 -68 -102 -85
-218 -85 -83 0 -107 4 -140 22 -52 28 -79 57 -107 118 -23 49 -23 57 -23 385
0 331 0 336 23 382 27 55 96 120 144 136 18 6 69 10 113 9 62 -2 91 -8 129
-27z m2352 -6 c31 -19 56 -46 76 -80 35 -64 55 -165 39 -200 -10 -24 -15 -25
-88 -22 l-78 3 -5 55 c-6 68 -29 106 -69 115 -46 10 -84 -13 -99 -60 -27 -81
-2 -125 116 -212 196 -144 237 -201 237 -328 0 -104 -20 -161 -76 -217 -59
-59 -131 -83 -228 -76 -131 10 -201 73 -230 206 -15 72 -14 127 3 141 9 7 42
11 88 9 l73 -3 3 -50 c5 -106 26 -135 97 -135 70 0 105 47 92 126 -9 52 -46
95 -155 178 -102 77 -151 126 -177 176 -54 104 -30 264 51 345 48 48 104 65
201 62 70 -3 88 -8 129 -33z m-3730 7 c53 -24 111 -93 129 -155 18 -60 19
-138 3 -154 -13 -13 -126 -16 -145 -4 -6 4 -15 31 -19 61 -9 69 -37 102 -87
104 -58 2 -82 -29 -82 -103 0 -71 12 -86 152 -191 168 -127 209 -196 201 -338
-7 -111 -55 -190 -146 -235 -46 -23 -149 -31 -210 -16 -110 26 -166 99 -183
235 -14 108 -8 115 90 115 l78 0 5 -70 c7 -90 30 -120 94 -120 26 0 50 7 65
19 21 17 24 28 24 85 0 61 -2 67 -35 101 -19 20 -80 72 -136 115 -150 116
-191 188 -182 325 7 107 62 192 148 229 51 22 184 21 236 -3z m671 -2 c86 -42
137 -141 131 -256 l-3 -58 -60 -3 c-97 -5 -102 -2 -107 69 -4 52 -9 66 -32 86
-36 30 -80 30 -111 -2 -20 -20 -25 -34 -25 -78 0 -69 13 -86 139 -181 167
-127 202 -178 209 -302 7 -138 -38 -228 -142 -281 -44 -23 -63 -27 -136 -27
-68 0 -93 4 -126 21 -48 25 -88 70 -110 122 -18 42 -29 180 -16 199 10 15 100
27 135 18 23 -5 26 -12 32 -78 9 -89 33 -118 95 -118 60 0 90 33 90 100 0 80
-30 120 -166 223 -145 109 -204 209 -190 325 13 106 64 187 141 223 59 27 194
26 252 -2z m-3342 1 c5 -8 168 -889 182 -983 l6 -38 -89 3 -89 3 -15 90 c-8
50 -19 96 -23 103 -6 8 -37 12 -97 12 -96 0 -92 3 -104 -65 -3 -16 -10 -56
-16 -87 l-11 -58 -80 0 -79 0 0 27 c0 15 16 102 35 193 19 91 62 306 95 478
33 172 62 317 65 322 8 13 212 13 220 0z m2145 -9 c14 -28 13 -128 -2 -138 -7
-4 -69 -10 -138 -13 l-125 -5 -3 -105 c-4 -154 -9 -147 96 -152 48 -2 93 -7
100 -12 14 -9 16 -114 2 -136 -7 -11 -33 -16 -97 -19 -51 -2 -91 -8 -95 -15
-14 -21 -9 -233 5 -244 7 -7 66 -13 133 -14 l119 -3 9 -48 c4 -26 5 -58 2 -71
-8 -33 -45 -38 -271 -34 l-180 3 -3 500 c-1 275 0 506 3 513 3 9 57 12 219 12
203 0 216 -1 226 -19z m2613 -10 c93 -46 127 -120 127 -281 0 -116 -18 -185
-60 -225 -16 -16 -30 -35 -30 -42 0 -7 25 -102 55 -211 30 -109 55 -205 55
-214 0 -24 -27 -30 -103 -22 -49 5 -70 11 -75 23 -4 9 -29 95 -57 191 l-50
175 -35 0 -35 0 -3 -184 c-1 -102 -7 -190 -12 -196 -11 -13 -119 -20 -150 -10
-20 6 -20 19 -20 509 0 276 3 506 8 510 4 4 81 6 172 4 148 -3 170 -6 213 -27z
m472 -481 l0 -505 -52 -9 c-28 -5 -67 -6 -87 -2 l-36 7 0 510 0 510 88 -3 87
-3 0 -505z m629 494 c3 -9 6 -37 6 -64 0 -82 4 -80 -136 -80 -124 0 -125 0
-134 -26 -13 -34 -13 -200 0 -225 9 -16 22 -19 93 -19 51 0 88 -5 95 -12 16
-16 16 -130 0 -146 -7 -7 -45 -12 -99 -12 -70 0 -88 -3 -93 -16 -10 -26 -7
-204 4 -225 10 -17 22 -19 128 -19 64 0 123 -4 130 -9 9 -5 12 -28 10 -77 l-3
-69 -221 -3 -222 -2 -5 27 c-8 41 -9 978 -1 986 4 4 105 7 225 7 188 0 218 -2
223 -16z m85 -1368 c7 -8 11 -37 9 -68 l-3 -53 -2885 0 -2885 0 -3 54 c-2 29
-1 60 2 67 8 21 5748 21 5765 0z"/>
<path d="M3533 8649 c17 -125 143 -277 287 -347 115 -56 183 -72 310 -72 128
0 210 19 304 68 131 68 264 229 282 340 9 58 -6 53 -51 -15 -118 -178 -297
-279 -510 -290 -240 -13 -460 100 -579 295 -20 34 -40 62 -43 62 -3 0 -3 -19
0 -41z"/>
<path d="M3726 4290 c-40 -12 -63 -36 -81 -84 -23 -59 -18 -835 5 -880 51 -98
196 -99 245 -1 19 38 20 60 20 450 0 392 -1 411 -20 444 -36 62 -104 90 -169
71z"/>
<path d="M5915 2476 c-33 -33 -37 -74 -33 -379 l3 -269 28 -24 c40 -34 105
-33 138 2 l24 26 3 291 c3 306 0 333 -42 362 -33 24 -93 19 -121 -9z"/>
<path d="M1947 2373 c-6 -10 -67 -353 -67 -377 0 -13 12 -16 64 -16 36 0 67 4
70 9 6 9 -51 381 -59 389 -1 2 -5 0 -8 -5z"/>
<path d="M6622 2482 c-9 -6 -12 -44 -10 -153 l3 -144 48 -3 c41 -3 51 1 77 27
29 29 30 32 30 125 0 84 -3 98 -23 121 -16 20 -35 28 -67 31 -25 3 -51 1 -58
-4z"/>
</g>
</svg>
