<?xml version="1.0" standalone="no"?>
<!DOCTYPE svg PUBLIC "-//W3C//DTD SVG 20010904//EN"
 "http://www.w3.org/TR/2001/REC-SVG-20010904/DTD/svg10.dtd">
<svg version="1.0" xmlns="http://www.w3.org/2000/svg"
 width="1024.000000pt" height="1024.000000pt" viewBox="0 0 1024.000000 1024.000000"
 preserveAspectRatio="xMidYMid meet">
<metadata>
Created by potrace 1.16, written by Peter Selinger 2001-2019
</metadata>
<g transform="translate(0.000000,1024.000000) scale(0.100000,-0.100000)"
fill="#000000" stroke="none">
<path d="M4793 8927 c-11 -7 -51 -36 -89 -65 -81 -62 -185 -115 -269 -138 -79
-22 -334 -30 -452 -14 -193 25 -331 75 -467 171 l-75 52 -218 -83 c-271 -102
-567 -222 -636 -256 -100 -50 -157 -105 -312 -299 -234 -292 -535 -692 -620
-822 -16 -26 -24 -49 -21 -60 4 -10 64 -61 133 -113 70 -52 197 -148 282 -213
177 -134 366 -263 398 -272 18 -5 46 17 159 127 l137 133 -8 -940 c-4 -517 -4
-1002 0 -1079 l8 -138 43 -19 c41 -19 87 -19 1403 -17 l1360 3 23 23 23 23 -3
312 c-1 172 -7 533 -12 802 -14 662 -17 1002 -7 1011 4 4 29 -17 54 -47 26
-29 83 -91 127 -136 103 -108 109 -108 236 -11 170 128 582 462 587 475 10 27
-9 63 -93 177 -47 65 -138 199 -202 299 -252 395 -427 643 -498 707 -71 64
-303 167 -760 339 -88 33 -171 64 -185 69 -18 7 -32 7 -46 -1z"/>
<path d="M6711 8604 c-147 -39 -283 -154 -351 -295 -42 -89 -63 -185 -53 -246
5 -30 88 -173 155 -266 11 -16 13 11 13 165 0 169 2 187 24 241 35 88 95 156
173 196 58 29 78 34 160 38 74 4 106 1 154 -15 118 -37 213 -118 269 -230 21
-41 29 -76 35 -155 14 -161 19 -303 11 -315 -5 -8 -124 -12 -394 -12 -213 -1
-387 -4 -387 -7 0 -3 29 -42 63 -87 137 -175 173 -253 147 -315 -23 -56 -580
-511 -754 -615 -71 -43 -129 -47 -191 -16 -21 11 -41 17 -44 14 -9 -8 -9 -337
-1 -1067 l7 -647 23 -25 c13 -13 39 -30 58 -36 26 -9 328 -10 1201 -5 1302 8
1214 3 1256 78 l19 36 -28 249 c-15 136 -59 514 -97 838 -38 325 -92 784 -119
1020 -28 237 -53 452 -56 478 -3 28 -15 59 -28 73 -21 25 -22 25 -252 31
l-231 6 -7 60 c-3 33 -6 99 -6 146 0 47 -5 127 -10 176 -26 238 -215 449 -455
510 -74 19 -232 18 -304 -1z"/>
<path d="M1952 4519 c-112 -19 -196 -88 -258 -214 l-39 -79 -3 -413 c-4 -452
3 -526 53 -630 37 -74 109 -135 200 -168 68 -25 84 -27 170 -23 75 4 105 11
149 32 65 32 135 105 170 179 30 62 50 200 38 272 l-7 50 -115 0 -115 0 -6
-95 c-8 -137 -38 -185 -121 -196 -57 -8 -106 14 -133 59 -19 30 -20 53 -20
467 0 400 1 438 18 463 56 86 181 88 221 3 9 -19 20 -74 24 -123 l7 -88 109
-3 c139 -4 140 -3 131 102 -14 165 -48 249 -133 327 -85 78 -193 102 -340 78z"/>
<path d="M3640 4515 c-109 -30 -183 -109 -240 -256 l-30 -78 0 -408 c0 -443 5
-489 56 -583 37 -67 117 -148 172 -173 39 -18 67 -21 167 -22 74 0 138 5 168
14 57 16 134 82 170 144 56 95 58 119 64 564 6 460 3 493 -53 609 -68 138
-158 193 -329 200 -60 3 -108 -1 -145 -11z m206 -254 c57 -35 59 -51 59 -523
0 -411 -1 -428 -20 -453 -43 -57 -160 -67 -210 -18 -13 14 -28 42 -32 62 -3
20 -7 221 -7 446 l-1 410 23 37 c36 58 126 77 188 39z"/>
<path d="M8075 4517 c-142 -38 -243 -149 -275 -304 -8 -35 -10 -190 -7 -460 4
-440 5 -453 62 -569 30 -61 109 -137 175 -167 37 -17 66 -21 165 -21 107 -1
125 2 168 23 63 31 140 110 171 175 40 85 47 152 44 411 l-3 240 -180 -4
c-109 -2 -185 -8 -194 -14 -10 -9 -12 -36 -9 -113 2 -57 6 -106 10 -109 4 -4
33 -8 65 -9 l58 -1 3 -113 c4 -181 -23 -241 -114 -249 -64 -5 -113 19 -138 70
-17 36 -18 67 -17 459 2 334 5 428 16 454 18 44 68 74 124 74 35 0 49 -6 76
-33 33 -33 55 -101 55 -172 0 -56 18 -65 129 -65 95 0 98 1 109 25 27 58 6
190 -45 288 -43 80 -114 148 -181 172 -62 22 -203 28 -267 12z"/>
<path d="M2620 4501 c-7 -13 -10 -264 -10 -745 0 -629 2 -727 15 -739 13 -13
58 -15 312 -11 214 4 300 9 305 17 4 7 8 60 8 118 0 132 -7 145 -70 129 -25
-6 -102 -10 -175 -8 l-130 3 -3 614 c-1 433 -5 618 -13 628 -8 9 -41 13 -120
13 -97 0 -109 -2 -119 -19z"/>
<path d="M5283 4513 c-50 -4 -53 -6 -58 -36 -3 -18 -5 -350 -3 -738 2 -518 6
-710 15 -720 9 -11 36 -13 131 -9 66 3 123 8 126 11 3 3 2 19 -2 35 -4 16 -6
156 -4 312 l3 282 140 0 139 0 0 -307 c0 -170 4 -313 8 -320 6 -9 182 -19 247
-14 10 1 11 1471 1 1497 -5 14 -223 11 -237 -3 -6 -6 -13 -142 -16 -306 l-6
-297 -139 0 -138 0 0 283 c0 207 -4 289 -13 307 -11 23 -19 25 -77 26 -36 0
-88 -1 -117 -3z"/>
<path d="M6266 4504 c-17 -17 -18 -54 -15 -739 3 -600 6 -725 18 -739 12 -14
31 -16 130 -14 l116 3 3 736 c2 582 -1 739 -10 747 -7 6 -61 14 -119 17 -94 7
-107 6 -123 -11z"/>
<path d="M6754 4494 c-15 -22 -15 -92 -8 -751 l9 -728 110 -7 c61 -4 119 -4
129 -1 18 5 19 18 12 412 -5 290 -4 403 3 395 6 -5 45 -110 86 -231 65 -192
203 -539 226 -568 4 -6 59 -9 133 -9 l125 2 5 248 c6 309 -9 1233 -21 1244 -4
5 -58 12 -120 15 l-111 7 -11 -38 c-7 -26 -9 -160 -4 -411 3 -205 3 -373 0
-373 -4 0 -18 39 -33 88 -71 238 -201 607 -240 684 -17 33 -27 35 -167 42
-105 5 -108 4 -123 -20z"/>
<path d="M4293 4503 c-14 -5 -19 -196 -7 -227 5 -13 25 -16 114 -16 60 0 115
-3 124 -6 14 -6 16 -68 16 -604 0 -554 1 -599 18 -619 16 -20 25 -22 127 -19
l110 3 5 620 5 620 130 5 130 5 3 120 3 120 -383 2 c-211 0 -389 -1 -395 -4z"/>
<path d="M2558 2651 c-73 -24 -125 -76 -165 -166 -16 -36 -18 -74 -18 -365 l0
-325 30 -55 c56 -102 159 -151 284 -135 72 9 120 34 164 85 41 49 57 103 57
199 l0 71 -69 0 c-88 0 -101 -11 -101 -86 0 -72 -28 -104 -92 -104 -46 1 -68
12 -86 47 -16 29 -17 577 -1 622 6 17 19 36 29 41 26 14 83 12 102 -2 21 -18
38 -72 38 -124 l0 -44 85 0 85 0 0 64 c0 113 -55 217 -134 256 -49 23 -164 35
-208 21z"/>
<path d="M3256 2649 c-81 -20 -135 -72 -173 -169 -16 -40 -18 -77 -15 -360 2
-314 2 -315 27 -367 32 -65 91 -118 147 -134 61 -16 174 -7 223 19 94 48 144
135 145 250 l0 72 -73 0 c-43 0 -78 -5 -85 -12 -7 -7 -12 -30 -12 -51 0 -76
-42 -127 -106 -127 -38 0 -64 18 -80 55 -17 42 -20 527 -3 588 15 54 41 77 88
77 56 0 81 -34 81 -110 0 -68 2 -70 102 -70 l70 0 -4 89 c-3 85 -5 92 -43 147
-27 39 -54 65 -85 81 -52 26 -146 37 -204 22z"/>
<path d="M5237 2649 c-71 -11 -118 -40 -154 -93 -61 -90 -67 -187 -18 -290 26
-55 109 -140 225 -231 78 -61 100 -96 100 -157 0 -59 -29 -96 -82 -105 -76
-12 -121 30 -134 125 l-7 53 -76 -3 -76 -3 -3 -48 c-5 -83 22 -155 81 -212 62
-60 105 -75 214 -75 64 0 88 5 124 23 56 30 104 93 125 165 15 49 15 67 5 126
-21 128 -63 185 -234 323 -90 74 -108 98 -114 157 -7 59 19 86 80 86 61 0 87
-29 87 -98 l0 -52 79 0 79 0 6 45 c13 86 -9 150 -72 207 -58 52 -138 72 -235
57z"/>
<path d="M8275 2650 c-101 -15 -147 -47 -187 -135 -48 -107 -18 -248 75 -344
23 -23 76 -69 117 -101 90 -69 125 -105 139 -143 33 -88 -14 -157 -108 -157
-60 0 -101 57 -101 141 l0 39 -68 0 c-92 0 -107 -12 -99 -78 10 -83 28 -131
69 -177 55 -62 109 -86 201 -87 122 -1 193 33 248 120 36 57 45 119 31 205
-20 114 -76 195 -192 280 -125 90 -169 153 -155 217 8 39 40 60 87 60 55 0 78
-27 78 -90 0 -61 14 -70 95 -61 l60 6 7 40 c4 22 2 64 -3 93 -9 43 -20 63 -57
102 -60 61 -137 84 -237 70z"/>
<path d="M4491 2624 c-63 -32 -104 -89 -122 -169 -13 -60 -2 -130 32 -197 26
-51 110 -141 158 -170 85 -50 171 -157 171 -210 0 -63 -46 -108 -110 -108 -74
0 -110 45 -110 136 l0 47 -77 -6 c-46 -3 -80 -11 -85 -19 -13 -20 -2 -111 20
-160 46 -106 127 -159 238 -159 126 0 212 48 261 149 23 48 28 70 28 133 0 68
-5 85 -38 152 -34 69 -48 85 -129 149 -151 121 -167 137 -178 179 -20 74 13
124 81 124 57 0 83 -30 85 -97 2 -50 4 -53 31 -59 16 -3 50 -3 74 0 43 6 44 7
53 54 14 70 -11 143 -68 195 -52 48 -96 62 -192 62 -56 0 -81 -5 -123 -26z"/>
<path d="M5880 2639 c-32 -13 -95 -74 -125 -120 -50 -78 -56 -126 -53 -411 3
-246 5 -267 26 -320 26 -64 85 -129 146 -160 30 -16 59 -21 117 -21 123 0 187
41 245 155 36 71 47 178 42 425 -4 197 -6 224 -27 275 -32 81 -107 162 -165
177 -54 13 -172 13 -206 0z m159 -169 c10 -5 26 -28 35 -50 23 -58 24 -556 1
-600 -19 -37 -43 -50 -93 -50 -45 0 -77 28 -92 81 -14 47 -13 520 1 556 18 49
48 73 91 73 22 0 47 -4 57 -10z"/>
<path d="M1846 2628 c-7 -24 -166 -833 -180 -913 -7 -44 -10 -84 -6 -88 4 -4
42 -7 86 -5 l79 3 15 90 16 90 91 3 c106 3 103 6 123 -98 6 -36 17 -71 22 -77
7 -8 38 -13 86 -13 l75 0 -6 58 c-13 124 -173 931 -189 949 -15 18 -207 18
-212 1z m145 -480 c13 -92 21 -169 19 -171 -9 -8 -99 -14 -110 -7 -7 4 -6 30
4 86 8 43 23 131 32 194 20 134 21 133 55 -102z"/>
<path d="M3767 2623 c-9 -30 -2 -977 6 -990 6 -10 63 -13 227 -13 251 0 235
-7 224 102 l-7 68 -126 0 c-69 0 -132 4 -139 8 -9 7 -12 40 -10 133 l3 124
110 5 110 5 0 75 0 75 -112 3 -113 3 0 107 c0 59 5 114 10 122 7 12 38 16 132
20 l123 5 3 83 3 82 -220 0 c-201 0 -220 -2 -224 -17z"/>
<path d="M6445 2629 c-3 -8 -4 -237 -3 -509 l3 -495 80 0 80 0 5 200 5 200 28
9 c21 8 31 6 41 -5 8 -7 35 -87 60 -177 26 -90 53 -179 61 -198 l14 -34 80 0
c44 0 82 4 85 9 3 4 -26 102 -65 217 l-70 209 36 30 c51 44 77 112 83 220 6
117 -12 185 -68 247 -57 66 -101 78 -292 85 -129 5 -159 3 -163 -8z m295 -172
c45 -15 63 -65 58 -159 -5 -94 -20 -108 -115 -108 l-73 0 0 133 c0 74 3 137 7
140 10 11 85 7 123 -6z"/>
<path d="M7141 2623 c-9 -18 -5 -931 5 -980 4 -22 9 -23 84 -23 l80 0 -2 508
-3 507 -77 3 c-65 2 -78 0 -87 -15z"/>
<path d="M7487 2633 c-12 -11 -8 -972 3 -994 10 -18 23 -19 229 -19 l219 0 6
35 c4 19 4 57 0 85 l-7 50 -139 0 -139 0 3 133 3 132 110 5 110 5 0 75 0 75
-112 3 -113 3 0 124 0 125 135 0 135 0 0 85 0 85 -218 0 c-120 0 -222 -3 -225
-7z"/>
<path d="M4530 1280 c-1828 -4 -2279 -8 -2297 -18 -17 -9 -23 -22 -23 -47 0
-70 -240 -65 2894 -65 1925 0 2833 3 2859 11 35 10 37 12 37 53 0 28 -6 48
-17 57 -19 16 -53 16 -3453 9z"/>
</g>
</svg>
